<svg width="20" height="15" viewBox="0 0 20 15" fill="none" xmlns="http://www.w3.org/2000/svg">
<path d="M17.5 0.4375C16.5288 0.13125 15.4612 0 14.4375 0C12.7312 0 10.8938 0.35 9.625 1.3125C8.35625 0.35 6.51875 0 4.8125 0C3.10625 0 1.26875 0.35 0 1.3125V14.1312C0 14.35 0.21875 14.5687 0.4375 14.5687C0.525 14.5687 0.56875 14.525 0.65625 14.525C1.8375 13.9563 3.54375 13.5625 4.8125 13.5625C6.51875 13.5625 8.35625 13.9125 9.625 14.875C10.8062 14.1312 12.95 13.5625 14.4375 13.5625C15.8813 13.5625 17.3687 13.825 18.5938 14.4812C18.6812 14.525 18.725 14.525 18.8125 14.525C19.0312 14.525 19.25 14.3063 19.25 14.0875V1.3125C18.725 0.91875 18.1562 0.65625 17.5 0.4375ZM17.5 12.25C16.5375 11.9437 15.4875 11.8125 14.4375 11.8125C12.95 11.8125 10.8062 12.3812 9.625 13.125V3.0625C10.8062 2.31875 12.95 1.75 14.4375 1.75C15.4875 1.75 16.5375 1.88125 17.5 2.1875V12.25Z" fill="#475569"/>
</svg>
