<?xml version="1.0" encoding="UTF-8" standalone="no"?>
<!-- Created with Inkscape (http://www.inkscape.org/) -->

<svg
   width="615"
   height="615"
   viewBox="0 0 162.71875 162.71875"
   version="1.1"
   id="svg1"
   xml:space="preserve"
   xmlns="http://www.w3.org/2000/svg"
   xmlns:svg="http://www.w3.org/2000/svg"><defs
     id="defs1" /><g
     id="layer1"
     style="display:inline"><path
       style="display:inline;fill:#ddf403;fill-opacity:0.996078;stroke-width:0.264583"
       d="M 159.65629,124.13174 53.490981,82.482276 81.665621,108.20695 c 0,0 -5.920758,7.3499 -20.824735,6.32908 -14.903976,-1.02082 -23.871267,-12.65817 -23.871267,-12.65817 0,0 -2.518536,-2.871921 -4.992657,-8.369437 -1.649497,-3.665197 -3.263524,-8.576004 -3.590196,-14.292772 -0.374972,-6.562019 0.247561,-10.329348 1.201581,-13.781627 1.123748,-4.066471 1.843239,-8.023637 5.724072,-13.505646 1.057138,-1.493298 2.157616,-2.854237 3.211919,-4.078645 1.066997,-1.239151 2.37296,-2.197046 3.542267,-3.152197 6.205457,-5.068948 13.057689,-6.723023 13.057689,-6.723023 0,0 10.412367,-2.858296 21.233061,1.429149 10.820693,4.287444 18.170601,18.578928 18.170601,18.578928 0,0 0.918314,2.226271 1.876511,5.526177 0.659648,2.271741 1.233978,5.227237 1.531666,8.253729 0.730109,7.422743 -1.216846,15.787719 -2.555373,19.438247 l 22.56094,9.065487 c 0,0 1.74965,-4.263133 3.21515,-9.962708 1.61773,-6.291617 2.70799,-14.773305 1.62261,-21.125994 -0.83196,-4.869413 -1.81364,-10.305177 -3.68902,-15.445007 -2.78768,-7.640138 -7.03688,-14.711917 -11.55577,-18.989122 -1.1728,-1.110074 -2.18205,-2.373547 -3.46276,-3.621674 -1.90692,-1.858406 -4.397705,-3.738854 -6.784729,-5.55861 -5.849655,-4.459503 -13.136465,-8.292394 -20.70618,-9.373782 -12.733183,-1.819026 -24.738756,-2.182832 -38.381452,3.638052 -13.642696,5.820884 -24.011145,20.19119 -24.011145,20.19119 0,0 -8.0037152,11.09606 -10.0046439,25.102561 -0.6396132,4.477292 -1.0901063,9.248338 -0.8297567,13.571628 0.5541129,9.201439 2.8306855,16.624206 2.8306855,16.624206 0,0 2.2249869,5.66651 5.6555841,11.57618 2.561905,4.41323 6.015088,8.86825 8.53282,11.70735 3.509773,3.95777 9.128249,7.72818 14.681603,10.47708 3.780604,1.87138 7.39164,3.34496 10.208832,4.21655 6.724355,2.08039 19.493805,4.40616 29.862252,2.04142 4.343457,-0.99062 9.197658,-2.82251 13.372472,-4.86353 5.791059,-2.83119 10.274868,-5.86873 10.274868,-5.86873 l 27.46729,25.28446 v -22.19211 z"
       id="path8" /></g></svg>
